<svg id="Layer_1" data-name="Layer 1" xmlns="http://www.w3.org/2000/svg" viewBox="0 0 65.93 39.98"><defs><style>.cls-1{fill:#467366;}</style></defs><title>leaf-bg</title><path class="cls-1" d="M25.32,20.68A20.1,20.1,0,0,0,0,40H2a18,18,0,0,1,5.3-12.69A18.64,18.64,0,0,1,8.8,26v9.77L4.54,40H7.38L23.84,23.57a18,18,0,0,1-5.15,15.06c-.49.48-1,.93-1.51,1.35h3A20,20,0,0,0,25.32,20.68Zm-14.51,13V24.57a18.16,18.16,0,0,1,11.61-2.42Z" transform="translate(0)"/><path class="cls-1" d="M65.25.75a20,20,0,0,0-24.5,24.5A20,20,0,0,0,65.25.75ZM50.82,4.63A18,18,0,0,1,62.37,2.22L50.82,13.77ZM47.34,7.34c.48-.47,1-.91,1.48-1.32v9.75l-6.6,6.6A18,18,0,0,1,47.34,7.34ZM58.66,18.66a18,18,0,0,1-15,5.12L63.78,3.63A18,18,0,0,1,58.66,18.66Z" transform="translate(0)"/><path class="cls-1" d="M17.16,0A18,18,0,0,1,3.63,3.78L7.41,0H4.59L2.22,2.37A18.85,18.85,0,0,1,2.07,0h-2A19.86,19.86,0,0,0,.75,5.25,20,20,0,0,0,20.07.07L20.14,0Z" transform="translate(0)"/></svg>